<svg fill="none" stroke-linecap="round" stroke-linejoin="round" xmlns="http://www.w3.org/2000/svg" xmlns:xlink="http://www.w3.org/1999/xlink" width="200" height="200" viewBox="0 0 3200 3200"><g><path d="M880 1728 C873.461 1784.14, 869.815 1927.992, 857.6 2208 C843.469 2436.63, 865.297 2583.786, 864 2720 C1149.517 2721.234, 1373.916 2726.972, 1600 2731.2 C1602.472 2599.788, 1605.584 2435.442, 1600 2336 C1635.49 2326.839, 1736.899 2317.802, 1856 2336 C1864.812 2472.849, 1862.349 2616.568, 1856 2729.6 C2064.97 2723.391, 2214.305 2727.369, 2352 2716.8 C2351.979 2521.549, 2378.231 2279.748, 2358.4 2048 C2345.745 1905.524, 2341.473 1779.559, 2336 1728 C1996.46 1720.625, 1599.669 1705.768, 1216 1715.2 C1092.605 1728.876, 973.542 1711.256, 880 1728 C880 1728, 880 1728, 880 1728" stroke="none" stroke-width="0" fill="rgb(200, 85, 43)"></path><path d="M880 1728 C860.004 1794.285, 857.023 1908.005, 857.6 2208 M857.6 2208 C845.283 2442.57, 855.253 2592.475, 864 2720 M864 2720 C1135.333 2720.269, 1368.478 2738.736, 1600 2731.2 M1600 2731.2 C1608.024 2580.264, 1595.112 2446.226, 1600 2336 M1600 2336 C1636.914 2329.151, 1751.257 2327.698, 1856 2336 M1856 2336 C1858.449 2455.237, 1860.302 2617.215, 1856 2729.6 M1856 2729.6 C2059.161 2718.942, 2206.524 2721.354, 2352 2716.8 M2352 2716.8 C2365.271 2531.199, 2367.887 2282.403, 2358.4 2048 M2358.4 2048 C2365.087 1901.452, 2348.043 1790.364, 2336 1728 M2336 1728 C1985.005 1720.061, 1596.331 1710.15, 1216 1715.2 M1216 1715.2 C1098.307 1719.094, 986.178 1727.188, 880 1728 M880 1728 C880 1728, 880 1728, 880 1728" stroke="rgb(200, 85, 43)" stroke-width="1" fill="none"></path></g><g><path d="M736 1168 C720.804 1282.285, 722.623 1428.005, 736 1600 M736 1600 C728.483 1658.57, 752.853 1674.075, 777.6 1638.4 M777.6 1638.4 C831.333 1558.669, 864.478 1477.936, 960 1472 M960 1472 C1052.824 1460.264, 1081.512 1566.226, 1144 1648 M1144 1648 C1156.914 1676.351, 1199.257 1676.498, 1216 1648 M1216 1648 C1271.249 1559.237, 1314.702 1481.215, 1400 1472 M1400 1472 C1483.161 1464.542, 1526.524 1566.154, 1584 1648 M1584 1648 C1613.271 1683.199, 1638.287 1690.403, 1660.8 1648 M1660.8 1648 C1726.687 1565.452, 1756.043 1470.364, 1840 1472 M1840 1472 C1927.405 1476.861, 1964.331 1567.75, 2022.4 1648 M2022.4 1648 C2058.307 1682.294, 2083.778 1685.588, 2099.2 1648 M2099.2 1648 C2154.765 1565.935, 2203.098 1468.218, 2272 1472 M2272 1472 C2327.036 1467.278, 2359.893 1537.289, 2384 1616 M2384 1616 C2383.465 1525.131, 2400.652 1303.767, 2384 1168 M2384 1168 C1844.086 1161.615, 1288.752 1163.927, 736 1168 M736 1168 C736 1168, 736 1168, 736 1168" stroke="currentColor" stroke-width="48" fill="none"></path></g><g><path d="M1144 1200 C1133.604 1314.285, 1138.623 1412.005, 1140.8 1536" stroke="currentColor" stroke-width="41.6" fill="none"></path></g><g><path d="M1560 1200 C1549.604 1314.285, 1554.623 1412.005, 1556.8 1536" stroke="currentColor" stroke-width="41.6" fill="none"></path></g><g><path d="M1968 1200 C1957.604 1314.285, 1962.623 1412.005, 1964.8 1536" stroke="currentColor" stroke-width="41.6" fill="none"></path></g><g><path d="M736 1128 C714.404 1042.285, 716.223 916.005, 729.6 832 M729.6 832 C968.483 826.57, 1280.853 806.875, 1584 804.8 M1584 804.8 C1887.333 793.869, 2120.478 815.536, 2368 822.4 M2368 822.4 C2379.224 900.264, 2369.512 1022.226, 2368 1129.6 M2368 1129.6 C1812.914 1138.751, 1287.257 1138.898, 736 1128 M736 1128 C736 1128, 736 1128, 736 1128" stroke="currentColor" stroke-width="48" fill="none"></path></g><g><path d="M1024 976 C1044.004 936.685, 1081.023 925.605, 1104 976 M1104 976 C1106.083 1012.17, 1111.253 1030.875, 1136 1033.6 M1136 1033.6 C1167.333 1027.469, 1176.478 1004.336, 1209.6 979.2 M1209.6 979.2 C1236.824 951.464, 1251.112 971.026, 1264 1001.6 M1264 1001.6 C1259.314 1033.151, 1264.857 1058.898, 1292.8 1062.4 M1292.8 1062.4 C1320.849 1053.637, 1346.702 1033.215, 1376 976" stroke="currentColor" stroke-width="41.6" fill="none"></path></g><g><path d="M1536 976 C1549.604 939.885, 1586.623 928.805, 1609.6 976 M1609.6 976 C1614.883 1015.37, 1616.853 1034.075, 1644.8 1036.8 M1644.8 1036.8 C1676.133 1030.669, 1685.278 1004.336, 1721.6 979.2 M1721.6 979.2 C1748.824 954.664, 1763.112 974.226, 1776 1004.8 M1776 1004.8 C1771.314 1033.151, 1780.057 1062.098, 1808 1062.4" stroke="currentColor" stroke-width="41.6" fill="none"></path></g><g><path d="M880 1728 C858.404 1762.285, 857.023 1796.005, 860.8 1856" stroke="currentColor" stroke-width="48" fill="none"></path></g><g><path d="M1344 2726.4 C1328.804 2530.285, 1330.623 2324.005, 1344 2208 M1344 2208 C1346.083 2122.57, 1408.853 2054.875, 1504 2044.8 M1504 2044.8 C1567.333 2029.069, 1624.478 2044.336, 1696 2046.4 M1696 2046.4 C1796.824 2045.864, 1839.912 2110.226, 1856 2208 M1856 2208 C1851.314 2332.351, 1866.457 2524.498, 1856 2726.4" stroke="currentColor" stroke-width="48" fill="none"></path></g><g><path d="M1798.4 2400 C1786.404 2423.493, 1774.231 2426.405, 1760 2438.4 M1760 2438.4 C1731.275 2448.97, 1722.453 2421.683, 1721.6 2400 M1721.6 2400 C1720.933 2369.461, 1731.27 2367.536, 1760 2361.6 M1760 2361.6 C1786.032 2349.864, 1791.912 2377.019, 1798.4 2400 M1798.4 2400 C1798.4 2400, 1798.4 2400, 1798.4 2400" stroke="currentColor" stroke-width="41.6" fill="none"></path></g><g><path d="M992 1920 C1076.004 1912.685, 1177.023 1898.405, 1280 1920 M1280 1920 C1278.883 2026.57, 1287.253 2112.475, 1280 2208 M1280 2208 C1183.333 2208.269, 1080.478 2223.536, 992 2208 M992 2208 C990.424 2100.264, 979.112 2014.226, 992 1920 M992 1920 C992 1920, 992 1920, 992 1920" stroke="currentColor" stroke-width="41.6" fill="none"></path></g><g><path d="M1136 1913.6 C1127.204 2018.285, 1132.223 2100.005, 1136 2214.4" stroke="currentColor" stroke-width="41.6" fill="none"></path></g><g><path d="M640 2752 C1108.004 2770.285, 1753.023 2759.205, 2592 2745.6" stroke="currentColor" stroke-width="48" fill="none"></path></g><g><path d="M1552 800 C1543.204 706.285, 1548.223 612.005, 1552 544" stroke="currentColor" stroke-width="41.6" fill="none"></path></g><g><path d="M1552 552 C1620.004 568.685, 1705.023 570.405, 1792 608 M1792 608 C1720.483 653.77, 1664.853 666.075, 1552 672" stroke="currentColor" stroke-width="41.6" fill="none"></path></g><g><path d="M576 768 C568.804 824.685, 597.823 834.405, 659.2 851.2 M659.2 851.2 C597.283 866.57, 581.653 880.475, 576 934.4 M576 934.4 C570.533 870.669, 539.678 861.936, 492.8 851.2 M492.8 851.2 C552.024 834.664, 564.712 820.626, 576 768 M576 768 C576 768, 576 768, 576 768" stroke="currentColor" stroke-width="41.6" fill="none"></path></g></svg>