<svg xmlns="http://www.w3.org/2000/svg" viewBox="0 0 100 130" fill="none">
  <g stroke="currentColor" fill="none" stroke-width="1.4" stroke-linecap="round" stroke-linejoin="round">
    <!-- stem, gently curving from base to the head -->
    <path d="M54 124 C53 110 52 96 51 82 C50.4 73 50 65 50 58"/>

    <!-- awns rising past the tip -->
    <path d="M50 58 C50 51 50 44 49 38"/>
    <path d="M50 57 C52 51 54 45 55 40"/>
    <path d="M50 57 C48 51 46 45 45 40"/>

    <!-- grain pairs along the head, paired left and right, bottom to top -->
    <!-- pair 1 -->
    <path d="M50 80 C55 79 58 76 59 71 C57 73 53 75 50 75"/>
    <path d="M50 80 C45 79 42 76 41 71 C43 73 47 75 50 75"/>
    <!-- pair 2 -->
    <path d="M50 74 C55 73 58 70 59 65 C57 67 53 69 50 69"/>
    <path d="M50 74 C45 73 42 70 41 65 C43 67 47 69 50 69"/>
    <!-- pair 3 -->
    <path d="M50 68 C54.5 67 57 64 58 59.5 C56 61.5 53 63 50 63"/>
    <path d="M50 68 C45.5 67 43 64 42 59.5 C44 61.5 47 63 50 63"/>
    <!-- pair 4 -->
    <path d="M50 62 C54 61 56 58.5 57 54.5 C55 56 52.5 57 50 57"/>
    <path d="M50 62 C46 61 44 58.5 43 54.5 C45 56 47.5 57 50 57"/>

    <!-- one slender leaf off the stem -->
    <path d="M52 100 C46 97 41 93 38 87 C43 90 49 94 53 97"/>

    <!-- clay grain accent: a single ripe seed near the head -->
    <path d="M61 68 c2.4 -0.6 3.4 1.8 1.7 3.4 c-1.7 1.5 -4.2 -0.5 -3.2 -2.6 c0.3 -0.5 0.8 -0.7 1.5 -0.8 Z" stroke="#E0A24E"/>
  </g>
</svg>
