<svg xmlns="http://www.w3.org/2000/svg" viewBox="0 0 24 24" fill="none">
  <path d="M12 5.2c-.9-1.2-2.5-1.7-3.9-1.1-1.3.5-2 1.8-1.9 3.1-1.2.4-2 1.6-1.9 2.9.1 1 .7 1.8 1.5 2.2-.6.6-.9 1.5-.7 2.4.3 1.4 1.6 2.4 3 2.3.2 1.2 1.2 2.1 2.4 2.2 1.1.1 2.1-.6 2.4-1.6V5.2z" stroke="currentColor" stroke-width="2" stroke-linecap="round" stroke-linejoin="round"/>
  <path d="M12 5.2c.9-1.2 2.5-1.7 3.9-1.1 1.3.5 2 1.8 1.9 3.1 1.2.4 2 1.6 1.9 2.9-.1 1-.7 1.8-1.5 2.2.6.6.9 1.5.7 2.4-.3 1.4-1.6 2.4-3 2.3-.2 1.2-1.2 2.1-2.4 2.2-1.1.1-2.1-.6-2.4-1.6" stroke="currentColor" stroke-width="2" stroke-linecap="round" stroke-linejoin="round"/>
</svg>
